<svg width="12" height="14" viewBox="0 0 12 14" fill="none" xmlns="http://www.w3.org/2000/svg">
<path d="M11.1953 3.98828C11.1953 3.98828 11.3294 4.2181 11.5977 4.67773C11.8659 5.13737 12 5.91146 12 7C12 8.08854 11.7318 9.09245 11.1953 10.0117C10.6589 10.931 9.93099 11.6589 9.01172 12.1953C8.09245 12.7318 7.08854 13 6 13C5.42188 13 4.85417 12.9167 4.29688 12.75C4.60417 12.2656 4.80729 11.8385 4.90625 11.4688C4.95312 11.2917 5.09375 10.7422 5.32812 9.82031C5.43229 10.0234 5.6224 10.1992 5.89844 10.3477C6.17448 10.4961 6.47135 10.5703 6.78906 10.5703C7.41927 10.5703 7.98177 10.3919 8.47656 10.0352C8.97135 9.67839 9.35417 9.1875 9.625 8.5625C9.89583 7.9375 10.0312 7.23438 10.0312 6.45312C10.0312 5.85938 9.8763 5.30208 9.56641 4.78125C9.25651 4.26042 8.80729 3.83594 8.21875 3.50781C7.63021 3.17969 6.96615 3.01562 6.22656 3.01562C5.67969 3.01562 5.16927 3.09115 4.69531 3.24219C4.22135 3.39323 3.81901 3.59375 3.48828 3.84375C3.15755 4.09375 2.8737 4.38151 2.63672 4.70703C2.39974 5.03255 2.22526 5.36979 2.11328 5.71875C2.0013 6.06771 1.94531 6.41667 1.94531 6.76562C1.94531 7.30729 2.04948 7.78385 2.25781 8.19531C2.46615 8.60677 2.77083 8.89583 3.17188 9.0625C3.32812 9.125 3.42708 9.07292 3.46875 8.90625C3.47917 8.86979 3.5 8.78906 3.53125 8.66406C3.5625 8.53906 3.58333 8.46094 3.59375 8.42969C3.625 8.3099 3.59635 8.19792 3.50781 8.09375C3.24219 7.77604 3.10938 7.38281 3.10938 6.91406C3.10938 6.1276 3.38151 5.45182 3.92578 4.88672C4.47005 4.32161 5.18229 4.03906 6.0625 4.03906C6.84896 4.03906 7.46224 4.2526 7.90234 4.67969C8.34245 5.10677 8.5625 5.66146 8.5625 6.34375C8.5625 7.22917 8.38411 7.98177 8.02734 8.60156C7.67057 9.22135 7.21354 9.53125 6.65625 9.53125C6.33854 9.53125 6.08333 9.41797 5.89062 9.19141C5.69792 8.96484 5.63802 8.69271 5.71094 8.375C5.7526 8.19271 5.82161 7.94922 5.91797 7.64453C6.01432 7.33984 6.09245 7.07161 6.15234 6.83984C6.21224 6.60807 6.24219 6.41146 6.24219 6.25C6.24219 5.98958 6.17188 5.77344 6.03125 5.60156C5.89062 5.42969 5.6901 5.34375 5.42969 5.34375C5.10677 5.34375 4.83333 5.49219 4.60938 5.78906C4.38542 6.08594 4.27344 6.45573 4.27344 6.89844C4.27344 7.27865 4.33854 7.59635 4.46875 7.85156L3.69531 11.1172C3.60677 11.4818 3.57292 11.9427 3.59375 12.5C2.52083 12.026 1.65365 11.2943 0.992188 10.3047C0.330729 9.3151 0 8.21354 0 7C0 5.91146 0.268229 4.90755 0.804688 3.98828C1.34115 3.06901 2.06901 2.34115 2.98828 1.80469C3.90755 1.26823 4.91146 1 6 1C7.08854 1 8.09245 1.26823 9.01172 1.80469C9.93099 2.34115 10.6589 3.06901 11.1953 3.98828Z" fill="white"/>
</svg>
