<svg width="14" height="14" viewBox="0 0 14 14" fill="none" xmlns="http://www.w3.org/2000/svg">
<g clip-path="url(#clip0_245_274)">
<path d="M12.8125 3.1875C12.4635 3.69792 12.0417 4.13281 11.5469 4.49219C11.5521 4.5651 11.5547 4.67448 11.5547 4.82031C11.5547 5.4974 11.4557 6.17318 11.2578 6.84766C11.0599 7.52214 10.7591 8.16927 10.3555 8.78906C9.95182 9.40885 9.47135 9.95703 8.91406 10.4336C8.35677 10.9102 7.6849 11.2904 6.89844 11.5742C6.11198 11.8581 5.27083 12 4.375 12C2.96354 12 1.67188 11.6224 0.5 10.8672C0.682292 10.888 0.885417 10.8984 1.10938 10.8984C2.28125 10.8984 3.32552 10.5391 4.24219 9.82031C3.69531 9.8099 3.20573 9.64193 2.77344 9.31641C2.34115 8.99089 2.04427 8.57552 1.88281 8.07031C2.05469 8.09635 2.21354 8.10938 2.35938 8.10938C2.58333 8.10938 2.80469 8.08073 3.02344 8.02344C2.4401 7.90365 1.95703 7.61328 1.57422 7.15234C1.19141 6.69141 1 6.15625 1 5.54688V5.51562C1.35417 5.71354 1.73438 5.82031 2.14062 5.83594C1.79688 5.60677 1.52344 5.30729 1.32031 4.9375C1.11719 4.56771 1.01562 4.16667 1.01562 3.73438C1.01562 3.27604 1.13021 2.85156 1.35938 2.46094C1.98958 3.23698 2.75651 3.85807 3.66016 4.32422C4.5638 4.79036 5.53125 5.04948 6.5625 5.10156C6.52083 4.90365 6.5 4.71094 6.5 4.52344C6.5 3.82552 6.74609 3.23047 7.23828 2.73828C7.73047 2.24609 8.32552 2 9.02344 2C9.7526 2 10.3672 2.26562 10.8672 2.79688C11.4349 2.6875 11.9688 2.48438 12.4688 2.1875C12.276 2.78646 11.9062 3.25 11.3594 3.57812C11.8438 3.52604 12.3281 3.39583 12.8125 3.1875Z" fill="white"/>
</g>
<defs>
<clipPath id="clip0_245_274">
<rect width="13" height="14" fill="white" transform="matrix(1 0 0 -1 0.5 14)"/>
</clipPath>
</defs>
</svg>
