<svg width="18" height="14" viewBox="0 0 18 14" fill="none" xmlns="http://www.w3.org/2000/svg">
<path d="M5.08594 7.78906C5.08594 7.99219 5.01432 8.16536 4.87109 8.30859C4.72786 8.45182 4.55729 8.52344 4.35938 8.52344C4.15625 8.52344 3.98307 8.45182 3.83984 8.30859C3.69661 8.16536 3.625 7.99219 3.625 7.78906C3.625 7.59115 3.69661 7.42057 3.83984 7.27734C3.98307 7.13411 4.15625 7.0625 4.35938 7.0625C4.55729 7.0625 4.72786 7.13411 4.87109 7.27734C5.01432 7.42057 5.08594 7.59115 5.08594 7.78906ZM13.8867 7.26562C13.8867 7.26562 13.9225 7.30078 13.9941 7.37109C14.0658 7.44141 14.1016 7.57812 14.1016 7.78125C14.1016 7.98438 14.0299 8.15755 13.8867 8.30078C13.7435 8.44401 13.5703 8.51562 13.3672 8.51562C13.1641 8.51562 12.9909 8.44401 12.8477 8.30078C12.7044 8.15755 12.6328 7.98438 12.6328 7.78125C12.6328 7.57812 12.7044 7.40625 12.8477 7.26562C12.9909 7.125 13.1641 7.05469 13.3672 7.05469C13.5703 7.05469 13.7435 7.125 13.8867 7.26562ZM5.97656 7.78906C5.97656 7.3776 5.82943 7.02344 5.53516 6.72656C5.24089 6.42969 4.88542 6.28125 4.46875 6.28125C4.05208 6.28125 3.69661 6.42839 3.40234 6.72266C3.10807 7.01693 2.96094 7.3724 2.96094 7.78906C2.96094 8.20573 3.10807 8.5612 3.40234 8.85547C3.69661 9.14974 4.05208 9.29688 4.46875 9.29688C4.88542 9.29688 5.24089 9.14974 5.53516 8.85547C5.82943 8.5612 5.97656 8.20573 5.97656 7.78906ZM14.543 8.84766C14.543 8.84766 14.6165 8.77409 14.7637 8.62695C14.9108 8.47982 14.9844 8.19792 14.9844 7.78125C14.9844 7.36458 14.8372 7.00911 14.543 6.71484C14.2487 6.42057 13.8932 6.27344 13.4766 6.27344C13.0651 6.27344 12.7109 6.42057 12.4141 6.71484C12.1172 7.00911 11.9688 7.36458 11.9688 7.78125C11.9688 8.19792 12.1159 8.55339 12.4102 8.84766C12.7044 9.14193 13.0599 9.28906 13.4766 9.28906C13.8932 9.28906 14.2487 9.14193 14.543 8.84766ZM6.64062 7.78906C6.64062 8.39323 6.42839 8.90755 6.00391 9.33203C5.57943 9.75651 5.06771 9.96875 4.46875 9.96875C3.86458 9.96875 3.35026 9.75521 2.92578 9.32812C2.5013 8.90104 2.28906 8.38802 2.28906 7.78906C2.28906 7.1901 2.5026 6.67839 2.92969 6.25391C3.35677 5.82943 3.86979 5.61719 4.46875 5.61719C5.06771 5.61719 5.57943 5.82943 6.00391 6.25391C6.42839 6.67839 6.64062 7.1901 6.64062 7.78906ZM15.0195 6.24609C15.0195 6.24609 15.1257 6.35221 15.3379 6.56445C15.5501 6.77669 15.6562 7.18229 15.6562 7.78125C15.6562 8.38021 15.444 8.89193 15.0195 9.31641C14.5951 9.74089 14.0807 9.95312 13.4766 9.95312C12.8776 9.95312 12.3659 9.74089 11.9414 9.31641C11.5169 8.89193 11.3047 8.38021 11.3047 7.78125C11.3047 7.18229 11.5169 6.67057 11.9414 6.24609C12.3659 5.82161 12.8776 5.60938 13.4766 5.60938C14.0807 5.60938 14.5951 5.82161 15.0195 6.24609ZM7.06641 10.3555C7.06641 10.3555 7.24284 10.179 7.5957 9.82617C7.94857 9.47331 8.125 8.79948 8.125 7.80469C8.125 6.8099 7.77214 5.95964 7.06641 5.25391C6.36068 4.54818 5.51042 4.19531 4.51562 4.19531C3.86458 4.19531 3.26302 4.35677 2.71094 4.67969C2.15885 5.0026 1.72135 5.44141 1.39844 5.99609C1.07552 6.55078 0.914062 7.15365 0.914062 7.80469C0.914062 8.45573 1.07552 9.05859 1.39844 9.61328C1.72135 10.168 2.15885 10.6068 2.71094 10.9297C3.26302 11.2526 3.86458 11.4141 4.51562 11.4141C5.51042 11.4141 6.36068 11.0612 7.06641 10.3555ZM13.3438 3.32812C12.0208 2.75 10.5729 2.46094 9 2.46094C7.33854 2.46094 5.84635 2.7474 4.52344 3.32031C5.13281 3.32031 5.71354 3.4388 6.26562 3.67578C6.81771 3.91276 7.29297 4.23177 7.69141 4.63281C8.08984 5.03385 8.40755 5.51042 8.64453 6.0625C8.88151 6.61458 9 7.19531 9 7.80469C9 7.20573 9.11328 6.63411 9.33984 6.08984C9.56641 5.54557 9.8737 5.07552 10.2617 4.67969C10.6497 4.28385 11.112 3.96354 11.6484 3.71875C12.1849 3.47396 12.75 3.34375 13.3438 3.32812ZM16.0312 10.3555C16.0312 10.3555 16.207 10.179 16.5586 9.82617C16.9102 9.47331 17.0859 8.79948 17.0859 7.80469C17.0859 6.8099 16.7344 5.95964 16.0312 5.25391C15.3281 4.54818 14.4792 4.19531 13.4844 4.19531C12.4896 4.19531 11.6393 4.54818 10.9336 5.25391C10.2279 5.95964 9.875 6.8099 9.875 7.80469C9.875 8.79948 10.2279 9.64974 10.9336 10.3555C11.6393 11.0612 12.4896 11.4141 13.4844 11.4141C14.4792 11.4141 15.3281 11.0612 16.0312 10.3555ZM15.0078 3.38281H18C17.7708 3.64844 17.5755 3.94661 17.4141 4.27734C17.2526 4.60807 17.1484 4.90625 17.1016 5.17188C17.6745 5.95833 17.9609 6.83594 17.9609 7.80469C17.9609 8.61719 17.7604 9.36719 17.3594 10.0547C16.9583 10.7422 16.4141 11.2852 15.7266 11.6836C15.0391 12.082 14.2917 12.2812 13.4844 12.2812C12.7917 12.2812 12.1432 12.1354 11.5391 11.8438C10.9349 11.5521 10.4245 11.1484 10.0078 10.6328C9.76302 10.9245 9.42708 11.3906 9 12.0312C8.94271 11.9167 8.80339 11.7018 8.58203 11.3867C8.36068 11.0716 8.16667 10.8177 8 10.625C7.58333 11.1406 7.07161 11.5456 6.46484 11.8398C5.85807 12.1341 5.20833 12.2812 4.51562 12.2812C3.70833 12.2812 2.96094 12.082 2.27344 11.6836C1.58594 11.2852 1.04167 10.7422 0.640625 10.0547C0.239583 9.36719 0.0390625 8.61719 0.0390625 7.80469C0.0390625 6.83594 0.325521 5.95833 0.898438 5.17188C0.851562 4.90625 0.747396 4.60807 0.585938 4.27734C0.424479 3.94661 0.229167 3.64844 0 3.38281H2.85156C3.6276 2.86198 4.55208 2.45443 5.625 2.16016C6.69792 1.86589 7.82292 1.71875 9 1.71875C10.1667 1.71875 11.263 1.86458 12.2891 2.15625C13.3151 2.44792 14.2214 2.85677 15.0078 3.38281Z" fill="white"/>
</svg>
